<?xml version="1.0" encoding="utf-8"?>
<!-- Generator: Adobe Illustrator 17.0.0, SVG Export Plug-In . SVG Version: 6.00 Build 0)  -->
<svg version="1.2" baseProfile="tiny" id="Layer_1" xmlns="http://www.w3.org/2000/svg" xmlns:xlink="http://www.w3.org/1999/xlink"
	 x="0px" y="0px" width="947.218px" height="212.222px" viewBox="0 0 947.218 212.222" xml:space="preserve">
<g>
	<path fill="#FFFFFF" d="M156.763,106.982c-1.23,3.064-4.709,4.548-7.77,3.318c-3.066-1.229-4.551-4.712-3.322-7.772
		c1.228-3.065,5.493-6.498,8.554-5.27C157.29,98.491,157.991,103.916,156.763,106.982z"/>
	<path fill="#FFFFFF" d="M161.746,89.817c-0.865,2.157-3.311,3.203-5.467,2.335c-2.159-0.864-3.201-3.315-2.336-5.471
		c0.868-2.152,3.316-3.2,5.47-2.333C161.565,85.218,162.611,87.663,161.746,89.817z"/>
	<path fill="#FFFFFF" d="M149.376,120.622c-0.863,2.154-3.312,3.201-5.469,2.334c-2.154-0.863-3.199-3.316-2.333-5.469
		c0.864-2.154,3.315-3.197,5.469-2.332C149.196,116.017,150.246,118.466,149.376,120.622z"/>
	<path fill="#FFFFFF" d="M143.399,131.683c-0.568,1.424-2.184,2.111-3.605,1.537c-1.425-0.564-2.111-2.186-1.542-3.605
		c0.57-1.426,2.184-2.111,3.607-1.542C143.281,128.643,143.975,130.257,143.399,131.683z"/>
	<path fill="#FFFFFF" d="M139.16,142.265c-0.574,1.424-2.193,2.115-3.611,1.543c-1.426-0.568-2.115-2.188-1.54-3.609
		c0.571-1.423,2.185-2.111,3.608-1.543C139.039,139.226,139.73,140.844,139.16,142.265z"/>
	<path fill="#FFFFFF" d="M134.911,152.851c-0.571,1.42-2.187,2.114-3.608,1.539c-1.424-0.567-2.111-2.188-1.538-3.607
		c0.569-1.422,2.184-2.11,3.606-1.543C134.792,149.811,135.486,151.425,134.911,152.851z"/>
	<path fill="#FFFFFF" d="M130.667,163.436c-0.569,1.418-2.189,2.107-3.606,1.538c-1.425-0.569-2.115-2.188-1.542-3.606
		c0.57-1.422,2.186-2.111,3.61-1.542C130.547,160.395,131.242,162.011,130.667,163.436z"/>
</g>
<path fill="#FFFFFF" d="M123.812,72.169C92.549,40.737,86.677,51.115,86.677,51.115c-7.61,10.153,22.712,30.708,22.712,30.708
	c32.033,20.956,34.108,16.398,34.108,16.398C144.896,95.345,123.812,72.169,123.812,72.169z M140.955,94.791
	c-1.027-0.925-2.496-2.246-4.257-3.832c-1.757-1.588-3.86-3.379-6.117-5.286c-2.266-1.896-4.704-3.89-7.229-5.763
	c-2.512-1.886-5.105-3.663-7.655-5.101c-2.544-1.417-5.079-2.56-7.371-2.753c-0.571-0.054-1.089-0.002-1.599,0.101
	c-0.491,0.105-0.953,0.295-1.181,0.613c-0.238,0.312-0.168,0.747-0.013,1.103c0.154,0.362,0.378,0.669,0.582,0.94
	c0.427,0.532,0.815,0.915,1.078,1.175c0.27,0.254,0.414,0.39,0.414,0.39s-0.158-0.119-0.454-0.343
	c-0.287-0.235-0.729-0.56-1.208-1.076c-0.232-0.264-0.492-0.56-0.699-0.951c-0.198-0.369-0.376-0.944-0.059-1.47
	c0.313-0.502,0.864-0.747,1.401-0.915c0.537-0.168,1.161-0.24,1.773-0.218c2.474,0.1,5.176,1.114,7.829,2.496
	c2.665,1.386,5.312,3.176,7.868,5.065c2.539,1.915,4.987,3.939,7.203,5.923c2.225,1.973,4.201,3.921,5.892,5.588
	c1.55,1.529,2.778,2.874,3.703,3.871c-0.133-0.149-0.27-0.303-0.417-0.468c-1.341-1.521-3.312-3.644-5.661-6.201
	c-2.346-2.561-5.168-5.467-8.202-8.564c-3.039-3.091-6.363-6.308-9.828-9.358c-3.43-3.085-7.007-6.016-10.61-8.375
	c-1.806-1.167-3.591-2.24-5.382-3.035c-1.781-0.807-3.572-1.351-5.252-1.445c-0.816-0.069-1.63,0.091-2.335,0.324
	c-0.701,0.245-1.3,0.677-1.506,1.276c-0.212,0.596-0.069,1.253,0.149,1.795c0.215,0.554,0.524,1.021,0.797,1.44
	c0.573,0.826,1.105,1.422,1.464,1.828c0.371,0.397,0.568,0.609,0.568,0.609s-0.212-0.197-0.611-0.567
	c-0.385-0.382-0.974-0.928-1.599-1.74c-0.302-0.413-0.644-0.872-0.905-1.447c-0.257-0.56-0.482-1.28-0.261-2.049
	c0.223-0.779,0.947-1.34,1.707-1.649c0.774-0.31,1.632-0.502,2.553-0.464c1.801,0.038,3.692,0.547,5.561,1.314
	c1.874,0.766,3.761,1.766,5.603,2.954c3.699,2.36,7.346,5.28,10.842,8.35c3.464,3.108,6.762,6.386,9.78,9.524
	c3.022,3.136,5.685,6.206,7.964,8.835c2.277,2.632,4.071,4.913,5.341,6.495c1.258,1.593,1.944,2.528,1.944,2.528
	S141.976,95.726,140.955,94.791z"/>
<path fill="#FFFFFF" d="M193.689,100.241c0,0-31.264,2.147-32.24,5.19c0,0-1.651,4.725,35.979,11.754c0,0,36.109,6.127,37.641-6.469
	C235.068,110.716,238.002,99.161,193.689,100.241z M226.691,112.386c-0.369,0.711-1.027,1.078-1.6,1.308
	c-0.585,0.237-1.149,0.336-1.652,0.429c-1.012,0.16-1.814,0.15-2.357,0.164c-0.544-0.006-0.834-0.008-0.834-0.008
	s0.289-0.019,0.831-0.053c0.54-0.047,1.336-0.114,2.32-0.32c0.486-0.117,1.032-0.244,1.569-0.498
	c0.531-0.242,1.088-0.621,1.345-1.199c0.263-0.576,0.125-1.303-0.216-1.963c-0.352-0.654-0.832-1.33-1.473-1.84
	c-1.286-1.086-2.961-1.921-4.81-2.559c-1.848-0.653-3.882-1.101-5.996-1.493c-4.239-0.762-8.853-1.091-13.464-1.207
	c-4.613-0.165-9.239-0.111-13.571,0.046c-4.333,0.165-8.38,0.338-11.845,0.585c-3.464,0.244-6.354,0.432-8.374,0.615
	c-0.23,0.02-0.445,0.038-0.653,0.056c1.358-0.088,3.187-0.223,5.378-0.27c2.374-0.05,5.148-0.107,8.12-0.011
	c2.973,0.08,6.142,0.292,9.302,0.646c3.155,0.385,6.308,0.902,9.196,1.726c2.877,0.819,5.537,1.939,7.402,3.566
	c0.46,0.405,0.864,0.885,1.139,1.375c0.275,0.491,0.508,1.047,0.392,1.627c-0.129,0.602-0.653,0.897-1.052,1.029
	c-0.419,0.142-0.811,0.179-1.16,0.21c-0.702,0.046-1.247-0.021-1.617-0.048c-0.369-0.042-0.565-0.064-0.565-0.064
	s0.197,0.001,0.568,0.002c0.369-0.008,0.915-0.02,1.591-0.112c0.334-0.058,0.707-0.126,1.068-0.283
	c0.357-0.152,0.706-0.421,0.747-0.81c0.052-0.389-0.154-0.844-0.439-1.258c-0.301-0.424-0.642-0.816-1.094-1.171
	c-1.798-1.435-4.425-2.346-7.246-3.064c-2.84-0.707-5.945-1.198-9.066-1.553c-3.12-0.373-6.262-0.6-9.211-0.78
	c-2.949-0.166-5.707-0.309-8.074-0.362c-2.369-0.059-4.344-0.107-5.726-0.142c-1.384-0.023-2.175-0.037-2.175-0.037
	s1.142-0.207,3.149-0.5c2.01-0.278,4.881-0.701,8.344-1.049c3.463-0.344,7.508-0.744,11.857-0.946
	c4.35-0.206,8.998-0.321,13.651-0.199c4.648,0.172,9.305,0.557,13.614,1.383c2.155,0.402,4.214,0.972,6.102,1.704
	c1.885,0.727,3.609,1.657,4.943,2.867c0.696,0.606,1.188,1.334,1.536,2.092C226.926,110.763,227.066,111.667,226.691,112.386z"/>
<path fill="#FFFFFF" d="M116.618,89.408c-35.144-13.462-36.08-3.382-36.08-3.382c-2.354,10.511,28.276,15.878,28.276,15.878
	c32.097,5.073,32.114,0.821,32.114,0.821C141.015,100.018,116.618,89.408,116.618,89.408z M132.712,99.302
	c-1.914-0.627-4.17-1.289-6.581-1.995c-2.415-0.693-4.995-1.41-7.601-2.002c-2.6-0.61-5.225-1.107-7.697-1.361
	c-2.46-0.238-4.818-0.275-6.661,0.348c-0.852,0.301-1.731,0.842-1.905,1.469c-0.079,0.308,0.112,0.616,0.352,0.841
	c0.24,0.229,0.517,0.394,0.767,0.537c0.512,0.271,0.943,0.442,1.236,0.557c0.296,0.109,0.455,0.167,0.455,0.167
	s-0.165-0.037-0.473-0.107c-0.305-0.082-0.763-0.179-1.315-0.414c-0.273-0.125-0.579-0.265-0.878-0.499
	c-0.284-0.219-0.631-0.613-0.564-1.147c0.071-0.513,0.42-0.9,0.782-1.221c0.36-0.32,0.828-0.595,1.315-0.791
	c1.97-0.781,4.431-0.93,6.976-0.768c2.557,0.16,5.236,0.647,7.878,1.242c2.636,0.624,5.237,1.364,7.642,2.158
	c2.409,0.78,4.611,1.635,6.497,2.362c0.429,0.166,0.833,0.329,1.225,0.49c-1.192-0.518-2.559-1.106-4.069-1.764
	c-2.707-1.184-5.906-2.466-9.33-3.835c-3.426-1.363-7.117-2.725-10.858-3.911c-3.724-1.23-7.51-2.291-11.118-2.898
	c-1.803-0.291-3.556-0.522-5.219-0.533c-1.659-0.024-3.234,0.16-4.569,0.653c-0.653,0.219-1.229,0.621-1.696,1.037
	c-0.46,0.425-0.773,0.955-0.733,1.479c0.034,0.524,0.363,0.986,0.715,1.334c0.354,0.358,0.752,0.618,1.106,0.852
	c0.727,0.45,1.342,0.737,1.76,0.932c0.423,0.185,0.65,0.284,0.65,0.284s-0.234-0.08-0.672-0.228
	c-0.432-0.164-1.081-0.381-1.849-0.798c-0.378-0.217-0.803-0.456-1.208-0.814c-0.396-0.348-0.824-0.835-0.919-1.521
	c-0.098-0.696,0.278-1.393,0.767-1.901c0.499-0.515,1.102-0.963,1.84-1.253c1.422-0.594,3.076-0.851,4.799-0.898
	c1.726-0.05,3.543,0.075,5.389,0.37c3.696,0.57,7.541,1.592,11.319,2.783c3.765,1.239,7.456,2.667,10.881,4.081
	c3.429,1.411,6.549,2.905,9.222,4.179c2.672,1.278,4.844,2.456,6.371,3.26c1.521,0.818,2.373,1.318,2.373,1.318
	S136.551,100.546,132.712,99.302z"/>
<path fill="#FFFFFF" d="M186.956,117.659c0,0-24.955-9.213-26.77-7.203c0,0-2.924,3.092,23.765,21.624
	c0,0,25.834,17.315,31.406,8.094C215.357,140.174,221.643,132.249,186.956,117.659z M209.031,138.138
	c-0.538,0.437-1.184,0.498-1.71,0.483c-0.54-0.014-1.014-0.13-1.438-0.229c-0.846-0.219-1.468-0.502-1.896-0.678
	c-0.422-0.189-0.646-0.291-0.646-0.291s0.233,0.081,0.669,0.234c0.438,0.143,1.084,0.354,1.922,0.521
	c0.419,0.07,0.888,0.152,1.39,0.132c0.495-0.013,1.051-0.125,1.434-0.485c0.388-0.357,0.52-0.957,0.473-1.581
	c-0.058-0.623-0.206-1.31-0.533-1.916c-0.64-1.271-1.666-2.48-2.896-3.594c-1.223-1.126-2.663-2.152-4.18-3.169
	c-3.052-2.017-6.544-3.823-10.107-5.463c-3.544-1.685-7.172-3.206-10.607-4.546c-3.438-1.333-6.65-2.577-9.438-3.558
	c-1.55-0.548-2.948-1.05-4.171-1.482c0.393,0.147,0.797,0.304,1.22,0.474c1.875,0.754,4.068,1.631,6.361,2.703
	c2.3,1.059,4.706,2.291,7.059,3.632c2.337,1.366,4.627,2.837,6.607,4.464c1.972,1.617,3.668,3.403,4.575,5.318
	c0.223,0.476,0.378,0.994,0.424,1.474c0.047,0.481,0.041,1.001-0.255,1.427c-0.314,0.438-0.837,0.49-1.194,0.457
	c-0.379-0.033-0.698-0.139-0.982-0.234c-0.564-0.203-0.965-0.445-1.243-0.594c-0.273-0.158-0.419-0.244-0.419-0.244
	s0.155,0.066,0.445,0.189c0.292,0.115,0.725,0.284,1.283,0.436c0.28,0.064,0.595,0.135,0.927,0.131
	c0.328-0.002,0.678-0.098,0.828-0.377c0.297-0.58,0.02-1.573-0.398-2.375c-0.922-1.711-2.671-3.293-4.632-4.797
	c-1.98-1.499-4.238-2.926-6.555-4.252c-2.309-1.344-4.685-2.58-6.923-3.72c-2.244-1.128-4.344-2.183-6.171-3.028
	c-3.655-1.709-6.092-2.848-6.092-2.848s0.964,0.215,2.634,0.654c1.666,0.453,4.057,1.074,6.883,1.961
	c2.823,0.893,6.124,1.927,9.593,3.232c3.47,1.302,7.143,2.775,10.74,4.437c3.575,1.706,7.084,3.58,10.176,5.685
	c1.55,1.042,2.964,2.189,4.192,3.404c1.227,1.209,2.262,2.525,2.896,3.93c0.342,0.716,0.477,1.454,0.491,2.17
	C209.778,136.929,209.578,137.695,209.031,138.138z"/>
<g>
	<g>
		<path fill="#FFFFFF" d="M145.699,86.808l23.233-26.44l-1.499,36.172c5.717-1.174,14.648-2.088,20.603-2.614l-4.413-71.253
			l-50.339,48.863C137.098,75.896,142.445,82.191,145.699,86.808z"/>
		<path fill="#FFFFFF" d="M103.249,108.023c0,0-1.755-0.309-4.378-0.915l-84.759,84.268l40.979,0.038l69.858-80.963
			C120.204,110.276,113.301,109.606,103.249,108.023z"/>
		<path fill="#FFFFFF" d="M184.335,141.288c-8.526-5.912-14.02-10.246-17.566-13.416l-2.274,63.498l28.734,0.006l-3.355-46.71
			C186.578,142.788,184.335,141.288,184.335,141.288z"/>
	</g>
	<g>
		<path fill="#FFFFFF" d="M145.699,86.808l23.233-26.44l-1.499,36.172c5.717-1.174,14.648-2.088,20.603-2.614l-4.413-71.253
			l-50.339,48.863C137.098,75.896,142.445,82.191,145.699,86.808z"/>
		<path fill="#FFFFFF" d="M103.249,108.023c0,0-1.755-0.309-4.378-0.915l-84.759,84.268l40.979,0.038l69.858-80.963
			C120.204,110.276,113.301,109.606,103.249,108.023z"/>
		<path fill="#FFFFFF" d="M184.335,141.288c-8.526-5.912-14.02-10.246-17.566-13.416l-2.274,63.498l28.734,0.006l-3.355-46.71
			C186.578,142.788,184.335,141.288,184.335,141.288z"/>
	</g>
</g>
<g>
	<path fill="#FFFFFF" d="M292.811,127.469h-5.774l-5.256-11.608h-16.749l-4.967,11.608h-5.774l16.923-39.621h3.983L292.811,127.469z
		 M267.226,110.774h12.244l-6.353-14.261L267.226,110.774z"/>
	<path fill="#FFFFFF" d="M338.09,127.469h-5.66V96.802h-0.116l-12.128,15.246h-0.925l-12.128-15.246h-0.117v30.667h-5.659V88.078
		h5.315l13.051,16.171l13.111-16.171h5.256V127.469z"/>
	<path fill="#FFFFFF" d="M373.261,93.163h-16.689v11.896h16.112v5.082h-16.112v12.244h17.21v5.083h-22.87V88.078h22.35V93.163z"/>
	<path fill="#FFFFFF" d="M394.168,88.078c4.004,0.042,7.161,1.04,9.471,3.005c2.311,1.962,3.467,4.658,3.467,8.084
		c0,2.271-0.569,4.237-1.703,5.893c-1.138,1.656-2.766,2.908-4.881,3.754c1.117,0.73,2.126,1.596,3.032,2.598
		c0.902,1.002,1.779,2.136,2.628,3.409c0.499,0.73,1.011,1.51,1.53,2.338c0.519,0.828,1.047,1.684,1.588,2.57
		c0.231,0.386,0.452,0.751,0.663,1.096c0.212,0.348,0.435,0.675,0.664,0.984c0.038,0.077,0.087,0.164,0.147,0.258
		c0.057,0.097,0.123,0.185,0.201,0.261c0.463,0.692,0.981,1.437,1.559,2.223c0.577,0.79,1.29,1.764,2.138,2.919h-6.757l-5.197-8.088
		c-2.195-3.388-3.967-5.667-5.315-6.843c-1.348-1.176-2.619-1.84-3.811-1.993c-0.231-0.038-0.454-0.065-0.664-0.087
		c-0.212-0.017-0.434-0.027-0.664-0.027h-2.367v17.038h-5.66V88.078H394.168z M389.896,105.289h3.638
		c3.002,0.039,5.044-0.584,6.123-1.875c1.076-1.29,1.615-2.745,1.615-4.362v-0.059v-0.056c-0.038-1.868-0.655-3.333-1.849-4.404
		c-1.193-1.068-3.157-1.604-5.89-1.604h-3.638V105.289z"/>
	<path fill="#FFFFFF" d="M429.051,127.469h-5.661V88.078h5.661V127.469z"/>
	<path fill="#FFFFFF" d="M475.659,90.794v6.063c-1.541-0.845-3.013-1.569-4.418-2.164c-1.405-0.598-2.821-1.051-4.244-1.36
		c-0.811-0.153-1.617-0.278-2.428-0.376c-0.807-0.094-1.635-0.143-2.482-0.143c-4.507,0-8.25,1.426-11.234,4.275
		c-2.984,2.849-4.477,6.449-4.477,10.797c0,4.428,1.475,8.028,4.419,10.801c2.944,2.772,6.785,4.16,11.522,4.16
		c1.117,0,2.251-0.098,3.407-0.292c1.155-0.191,2.31-0.48,3.465-0.866c1.155-0.383,2.312-0.846,3.467-1.385
		c1.154-0.539,2.288-1.176,3.405-1.906v6.123c-1.924,1.04-4.013,1.878-6.265,2.511c-2.255,0.637-4.919,0.953-8.001,0.953
		c-5.813,0-10.376-1.45-13.686-4.358c-3.314-2.908-5.525-6.111-6.642-9.618c-0.31-0.96-0.539-1.913-0.692-2.859
		c-0.155-0.942-0.232-1.857-0.232-2.741c0-6.007,2.029-10.975,6.093-14.902c4.063-3.928,9.232-5.889,15.507-5.889
		c2.04,0,4.129,0.257,6.267,0.779c2.138,0.519,4.552,1.339,7.248,2.453V90.794z"/>
	<path fill="#FFFFFF" d="M522.959,127.469h-5.776l-5.256-11.608h-16.748l-4.967,11.608h-5.776l16.922-39.621h3.986L522.959,127.469z
		 M497.373,110.774h12.245l-6.353-14.261L497.373,110.774z"/>
	<path fill="#FFFFFF" d="M568.065,127.469h-4.852l-26.336-30.323v30.323h-5.314V88.078h4.505l26.682,30.496V88.078h5.315V127.469z"
		/>
	<path fill="#FFFFFF" d="M601.502,88.078h15.304c6.585,0.042,11.55,1.83,14.9,5.375c3.35,3.541,5.313,7.447,5.891,11.722
		c0.038,0.424,0.078,0.856,0.116,1.301c0.038,0.441,0.058,0.894,0.058,1.356c0,5.044-1.857,9.576-5.572,13.601
		c-3.717,4.021-8.829,6.036-15.336,6.036h-15.36V88.078z M607.162,122.386h9.01c4.273,0.039,7.536-0.849,9.788-2.664
		c2.253-1.813,3.821-3.799,4.708-5.959c0.461-1.078,0.788-2.139,0.981-3.183c0.192-1.04,0.288-1.969,0.288-2.779
		c0-3.973-1.299-7.406-3.897-10.3c-2.599-2.891-6.652-4.338-12.157-4.338h-8.721V122.386z"/>
	<path fill="#FFFFFF" d="M659.139,88.078c4.004,0.042,7.162,1.04,9.473,3.005c2.31,1.962,3.464,4.658,3.464,8.084
		c0,2.271-0.566,4.237-1.702,5.893c-1.136,1.656-2.764,2.908-4.881,3.754c1.117,0.73,2.127,1.596,3.032,2.598
		c0.904,1.002,1.78,2.136,2.628,3.409c0.501,0.73,1.01,1.51,1.53,2.338c0.519,0.828,1.049,1.684,1.588,2.57
		c0.231,0.386,0.452,0.751,0.664,1.096c0.213,0.348,0.434,0.675,0.665,0.984c0.038,0.077,0.087,0.164,0.144,0.258
		c0.058,0.097,0.126,0.185,0.202,0.261c0.463,0.692,0.982,1.437,1.561,2.223c0.577,0.79,1.288,1.764,2.136,2.919h-6.758
		l-5.196-8.088c-2.195-3.388-3.968-5.667-5.313-6.843c-1.348-1.176-2.619-1.84-3.813-1.993c-0.231-0.038-0.452-0.065-0.664-0.087
		c-0.213-0.017-0.434-0.027-0.663-0.027h-2.369v17.038h-5.659V88.078H659.139z M654.866,105.289h3.639
		c3.004,0.039,5.044-0.584,6.122-1.875c1.077-1.29,1.618-2.745,1.618-4.362v-0.059v-0.056c-0.04-1.868-0.656-3.333-1.85-4.404
		c-1.192-1.068-3.156-1.604-5.891-1.604h-3.639V105.289z"/>
	<path fill="#FFFFFF" d="M710.656,93.163h-16.689v11.896h16.112v5.082h-16.112v12.244h17.21v5.083h-22.871V88.078h22.351V93.163z"/>
	<path fill="#FFFFFF" d="M755.703,127.469h-5.774l-5.256-11.608h-16.749l-4.966,11.608h-5.775l16.921-39.621h3.986L755.703,127.469z
		 M730.119,110.774h12.244l-6.354-14.261L730.119,110.774z"/>
	<path fill="#FFFFFF" d="M800.983,127.469h-5.66V96.802h-0.114l-12.13,15.246h-0.923l-12.128-15.246h-0.117v30.667h-5.659V88.078
		h5.313l13.053,16.171l13.109-16.171h5.256V127.469z"/>
	<path fill="#FFFFFF" d="M832.515,90.331v6.411c-1.655-1.541-3.273-2.599-4.851-3.176c-1.579-0.578-3.042-0.866-4.39-0.866
		c-1.811,0-3.301,0.431-4.476,1.297c-1.176,0.866-1.762,1.993-1.762,3.381c0,1.423,0.529,2.626,1.588,3.607
		c1.06,0.984,2.358,1.917,3.899,2.804c0.461,0.268,0.951,0.546,1.472,0.835c0.521,0.288,1.049,0.588,1.59,0.897
		c2.116,1.231,4.061,2.734,5.831,4.505c1.771,1.771,2.658,4.216,2.658,7.332c0,3.082-1.04,5.622-3.119,7.625
		c-2.08,2-4.717,3.002-7.913,3.002c-2.116,0-4.071-0.288-5.861-0.866c-1.79-0.577-3.514-1.481-5.169-2.713v-7.222
		c1.463,1.889,3.08,3.322,4.851,4.304c1.771,0.984,3.619,1.475,5.545,1.475c1.809,0,3.225-0.396,4.245-1.187
		c1.02-0.786,1.684-1.663,1.992-2.626c0.038-0.191,0.078-0.387,0.116-0.578c0.038-0.19,0.058-0.386,0.058-0.577
		c0-1.732-0.656-3.187-1.964-4.362c-1.31-1.172-2.83-2.299-4.562-3.377c-0.346-0.191-0.685-0.394-1.01-0.605
		c-0.329-0.212-0.646-0.414-0.953-0.608c-2.157-1.308-4.121-2.78-5.892-4.418c-1.771-1.635-2.657-3.802-2.657-6.498
		c0-3.193,1.087-5.747,3.263-7.653c2.176-1.902,5.073-2.855,8.693-2.855c1.501,0,2.993,0.229,4.475,0.692
		c1.482,0.463,2.917,1.155,4.303,2.08V90.331z"/>
</g>
<g>
	<path fill="#FFFFFF" d="M256.742,172.046h1.542v18.439h9.745v1.276h-11.288V172.046z"/>
	<path fill="#FFFFFF" d="M294.035,191.762v-19.716h10.836v1.272h-9.291v7.921h9.049v1.273h-9.049v7.973h9.531v1.276H294.035z"/>
	<path fill="#FFFFFF" d="M329.684,191.762l9.065-19.814h0.836l9.063,19.814h-1.586l-3.129-6.786h-9.549l-3.115,6.786H329.684z
		 M334.966,183.702h8.415l-4.235-9.277L334.966,183.702z"/>
	<path fill="#FFFFFF" d="M374.838,191.762v-19.716h5.142h0.256c2.029,0,3.592,0.438,4.688,1.318
		c1.105,0.876,1.657,2.107,1.657,3.693c0,2.4-1.267,4.025-3.795,4.874c0.604,0.208,1.392,1.054,2.365,2.535l4.772,7.295h-1.798
		l-4.251-6.557c-0.736-1.135-1.405-1.899-2.011-2.296c-0.605-0.396-1.441-0.595-2.506-0.595h-2.977v9.447H374.838z M376.381,181.041
		h3.343c3.467,0,5.199-1.301,5.199-3.896c0-1.245-0.449-2.194-1.345-2.849c-0.889-0.65-1.997-0.978-3.329-0.978h-0.327h-3.541
		V181.041z"/>
	<path fill="#FFFFFF" d="M415.08,172.046h1.302l15.013,17.25v-17.25h1.545v19.716h-1.275l-15.041-17.254v17.254h-1.543V172.046z"/>
	<path fill="#FFFFFF" d="M461.083,172.046h1.543v19.716h-1.543V172.046z"/>
	<path fill="#FFFFFF" d="M490.755,172.046h1.304l15.014,17.25v-17.25h1.543v19.716h-1.275l-15.041-17.254v17.254h-1.544V172.046z"/>
	<path fill="#FFFFFF" d="M548.078,184.099v-1.273h5.621v7.549c-2.407,1.13-4.739,1.697-6.995,1.697
		c-3.089,0-5.652-0.939-7.691-2.817c-2.04-1.879-3.061-4.327-3.061-7.351c0-2.984,1.007-5.426,3.018-7.322
		c2.021-1.899,4.552-2.849,7.592-2.849c0.972,0,1.983,0.129,3.029,0.383c1.058,0.247,2.277,0.675,3.656,1.29v1.73
		c-2.362-1.322-4.684-1.983-6.97-1.983c-2.483,0-4.551,0.793-6.203,2.38c-1.642,1.586-2.463,3.708-2.463,6.372
		c0,2.654,0.862,4.776,2.592,6.373c1.727,1.586,3.894,2.379,6.501,2.379c2.011,0,3.826-0.41,5.45-1.231v-5.325H548.078z"/>
	<path fill="#FFFFFF" d="M629.419,173.42v1.715c-2.474-1.322-4.814-1.983-7.025-1.983c-2.492,0-4.552,0.835-6.174,2.505
		c-1.625,1.663-2.438,3.746-2.438,6.247c0,2.38,0.779,4.432,2.338,6.161c1.557,1.728,3.69,2.591,6.4,2.591
		c2.078,0,4.453-0.66,7.126-1.982v1.572c-1.153,0.557-2.324,1.002-3.514,1.332c-1.189,0.331-2.393,0.494-3.612,0.494
		c-3.011,0-5.499-0.971-7.463-2.915c-1.955-1.948-2.933-4.362-2.933-7.253c0-2.88,1.002-5.291,3.004-7.238
		c2.002-1.955,4.447-2.933,7.336-2.933C624.581,171.732,626.899,172.296,629.419,173.42z"/>
	<path fill="#FFFFFF" d="M656.301,191.762v-19.716h10.835v1.272h-9.291v7.921h9.051v1.273h-9.051v7.973h9.533v1.276H656.301z"/>
	<path fill="#FFFFFF" d="M694.091,172.046h1.303l15.014,17.25v-17.25h1.543v19.716h-1.273l-15.043-17.254v17.254h-1.543V172.046z"/>
	<path fill="#FFFFFF" d="M737.844,172.046h16.5v1.272h-7.479v18.443h-1.543v-18.443h-7.479V172.046z"/>
	<path fill="#FFFFFF" d="M780.433,191.762v-19.716h10.836v1.272h-9.291v7.921h9.051v1.273h-9.051v7.973h9.533v1.276H780.433z"/>
	<path fill="#FFFFFF" d="M818.252,191.762v-19.716h5.142h0.256c2.029,0,3.591,0.438,4.687,1.318
		c1.105,0.876,1.658,2.107,1.658,3.693c0,2.4-1.267,4.025-3.797,4.874c0.605,0.208,1.393,1.054,2.365,2.535l4.774,7.295h-1.8
		l-4.249-6.557c-0.736-1.135-1.407-1.899-2.011-2.296c-0.604-0.396-1.44-0.595-2.507-0.595h-2.974v9.447H818.252z M819.796,181.041
		h3.341c3.467,0,5.198-1.301,5.198-3.896c0-1.245-0.448-2.194-1.346-2.849c-0.887-0.65-1.996-0.978-3.327-0.978h-0.327h-3.539
		V181.041z"/>
</g>
<line fill="#FFFFFF" stroke="#FFFFFF" stroke-width="0.7021" stroke-miterlimit="10" x1="254.121" y1="149.414" x2="832.936" y2="149.414"/>
</svg>
